# xmcd
#
# Track frame offsets: 
#        150
#        18229
#        32051
#        54220
#        64184
#        80875
#        103477
#        121578
#        143891
#
# Disc length: 2274 seconds
#
# Revision: 4
# Processed by: cddbd v1.5.2PL0 Copyright (c) Steve Scherf et al.
# Submitted via: ExactAudioCopy v0.99pb5
#
DISCID=7608e009
DTITLE=Breakout - ZOL
DYEAR=1979
DGENRE=Blues
TTITLE0=Poki usmiech ma twarz dziecka
TTITLE1=Pozegnalny blues
TTITLE2=Dzien zwegla sie
TTITLE3=Idzie Wenus
TTITLE4=Ona odeszla stad
TTITLE5=Gdy masz przyjsc
TTITLE6=Oslepil mnie deszcz
TTITLE7=Co tam za mgla
TTITLE8=W cieniu bluesa
EXTD=Polish blues
EXTT0=
EXTT1=
EXTT2=
EXTT3=
EXTT4=
EXTT5=
EXTT6=
EXTT7=
EXTT8=
PLAYORDER=
